<svg xmlns="http://www.w3.org/2000/svg" xmlns:xlink="http://www.w3.org/1999/xlink" id="my-svg" width="1877" style="max-width: 1877px; background-color: transparent;" viewBox="-50 -10 1877 2492" role="graphics-document document" aria-roledescription="sequence" height="2492"><rect x="-50" y="-10" width="1877" height="2492" fill="#ffffff" fill-opacity="1" stroke="none" data-diagram-background="opaque-white"/><g><rect x="909" y="-4" fill="rgb(240, 253, 244)" stroke="rgb(0,0,0, 0.5)" width="884" height="2483" class="rect"/><text x="1351" y="14.5" dominant-baseline="central" alignment-baseline="central" class="text" style="text-anchor: middle; font-size: 16px; font-weight: 400;"><tspan x="1351" dy="0">Destination platform</tspan></text></g><g><rect x="-16" y="-4" fill="rgb(239, 246, 255)" stroke="rgb(0,0,0, 0.5)" width="859" height="2483" class="rect"/><text x="413.5" y="14.5" dominant-baseline="central" alignment-baseline="central" class="text" style="text-anchor: middle; font-size: 16px; font-weight: 400;"><tspan x="413.5" dy="0">Source platform</tspan></text></g><rect x="63" y="1743" fill="rgb(255, 247, 237)" width="1651" height="568" class="rect"/><rect x="394" y="1400" fill="rgb(239, 246, 255)" width="998" height="335" class="rect"/><rect x="394" y="1003" fill="rgb(245, 243, 255)" width="998" height="389" class="rect"/><rect x="76" y="422" fill="rgb(240, 253, 250)" width="1625" height="573" class="rect"/><rect x="63" y="79" fill="rgb(255, 247, 237)" width="1651" height="335" class="rect"/><g><rect x="1612" y="2419" fill="#eaeaea" stroke="#666" width="160" height="44" name="TD" rx="3" ry="3" class="actor actor-bottom"/><text x="1692" y="2441" dominant-baseline="central" alignment-baseline="central" class="actor actor-box" style="text-anchor: middle; font-size: 16px; font-weight: 400;"><tspan x="1692" dy="-8">Destination TDX</tspan></text><text x="1692" y="2441" dominant-baseline="central" alignment-baseline="central" class="actor actor-box" style="text-anchor: middle; font-size: 16px; font-weight: 400;"><tspan x="1692" dy="8">module</tspan></text></g><g><rect x="1290" y="2419" fill="#eaeaea" stroke="#666" width="160" height="44" name="DST" rx="3" ry="3" class="actor actor-bottom"/><text x="1370" y="2441" dominant-baseline="central" alignment-baseline="central" class="actor actor-box" style="text-anchor: middle; font-size: 16px; font-weight: 400;"><tspan x="1370" dy="-8">Destination</tspan></text><text x="1370" y="2441" dominant-baseline="central" alignment-baseline="central" class="actor actor-box" style="text-anchor: middle; font-size: 16px; font-weight: 400;"><tspan x="1370" dy="8">MigTD responder</tspan></text></g><g><rect x="930" y="2419" fill="#eaeaea" stroke="#666" width="160" height="44" name="VD" rx="3" ry="3" class="actor actor-bottom"/><text x="1010" y="2441" dominant-baseline="central" alignment-baseline="central" class="actor actor-box" style="text-anchor: middle; font-size: 16px; font-weight: 400;"><tspan x="1010" dy="0">Destination VMM</tspan></text></g><g><rect x="662" y="2419" fill="#eaeaea" stroke="#666" width="160" height="44" name="VS" rx="3" ry="3" class="actor actor-bottom"/><text x="742" y="2441" dominant-baseline="central" alignment-baseline="central" class="actor actor-box" style="text-anchor: middle; font-size: 16px; font-weight: 400;"><tspan x="742" dy="0">Source VMM</tspan></text></g><g><rect x="336" y="2419" fill="#eaeaea" stroke="#666" width="160" height="44" name="SRC" rx="3" ry="3" class="actor actor-bottom"/><text x="416" y="2441" dominant-baseline="central" alignment-baseline="central" class="actor actor-box" style="text-anchor: middle; font-size: 16px; font-weight: 400;"><tspan x="416" dy="-8">Source MigTD</tspan></text><text x="416" y="2441" dominant-baseline="central" alignment-baseline="central" class="actor actor-box" style="text-anchor: middle; font-size: 16px; font-weight: 400;"><tspan x="416" dy="8">requester</tspan></text></g><g><rect x="5" y="2419" fill="#eaeaea" stroke="#666" width="160" height="44" name="TS" rx="3" ry="3" class="actor actor-bottom"/><text x="85" y="2441" dominant-baseline="central" alignment-baseline="central" class="actor actor-box" style="text-anchor: middle; font-size: 16px; font-weight: 400;"><tspan x="85" dy="-8">Source TDX</tspan></text><text x="85" y="2441" dominant-baseline="central" alignment-baseline="central" class="actor actor-box" style="text-anchor: middle; font-size: 16px; font-weight: 400;"><tspan x="85" dy="8">module</tspan></text></g><g><line id="actor5" x1="1692" y1="71" x2="1692" y2="2419" class="actor-line 200" stroke-width="0.5px" stroke="#999" name="TD" data-et="life-line" data-id="TD"/><g id="root-5" data-et="participant" data-type="participant" data-id="TD"><rect x="1612" y="27" fill="#eaeaea" stroke="#666" width="160" height="44" name="TD" rx="3" ry="3" class="actor actor-top"/><text x="1692" y="49" dominant-baseline="central" alignment-baseline="central" class="actor actor-box" style="text-anchor: middle; font-size: 16px; font-weight: 400;"><tspan x="1692" dy="-8">Destination TDX</tspan></text><text x="1692" y="49" dominant-baseline="central" alignment-baseline="central" class="actor actor-box" style="text-anchor: middle; font-size: 16px; font-weight: 400;"><tspan x="1692" dy="8">module</tspan></text></g></g><g><line id="actor4" x1="1370" y1="71" x2="1370" y2="2419" class="actor-line 200" stroke-width="0.5px" stroke="#999" name="DST" data-et="life-line" data-id="DST"/><g id="root-4" data-et="participant" data-type="participant" data-id="DST"><rect x="1290" y="27" fill="#eaeaea" stroke="#666" width="160" height="44" name="DST" rx="3" ry="3" class="actor actor-top"/><text x="1370" y="49" dominant-baseline="central" alignment-baseline="central" class="actor actor-box" style="text-anchor: middle; font-size: 16px; font-weight: 400;"><tspan x="1370" dy="-8">Destination</tspan></text><text x="1370" y="49" dominant-baseline="central" alignment-baseline="central" class="actor actor-box" style="text-anchor: middle; font-size: 16px; font-weight: 400;"><tspan x="1370" dy="8">MigTD responder</tspan></text></g></g><g><line id="actor3" x1="1010" y1="71" x2="1010" y2="2419" class="actor-line 200" stroke-width="0.5px" stroke="#999" name="VD" data-et="life-line" data-id="VD"/><g id="root-3" data-et="participant" data-type="participant" data-id="VD"><rect x="930" y="27" fill="#eaeaea" stroke="#666" width="160" height="44" name="VD" rx="3" ry="3" class="actor actor-top"/><text x="1010" y="49" dominant-baseline="central" alignment-baseline="central" class="actor actor-box" style="text-anchor: middle; font-size: 16px; font-weight: 400;"><tspan x="1010" dy="0">Destination VMM</tspan></text></g></g><g><line id="actor2" x1="742" y1="71" x2="742" y2="2419" class="actor-line 200" stroke-width="0.5px" stroke="#999" name="VS" data-et="life-line" data-id="VS"/><g id="root-2" data-et="participant" data-type="participant" data-id="VS"><rect x="662" y="27" fill="#eaeaea" stroke="#666" width="160" height="44" name="VS" rx="3" ry="3" class="actor actor-top"/><text x="742" y="49" dominant-baseline="central" alignment-baseline="central" class="actor actor-box" style="text-anchor: middle; font-size: 16px; font-weight: 400;"><tspan x="742" dy="0">Source VMM</tspan></text></g></g><g><line id="actor1" x1="416" y1="71" x2="416" y2="2419" class="actor-line 200" stroke-width="0.5px" stroke="#999" name="SRC" data-et="life-line" data-id="SRC"/><g id="root-1" data-et="participant" data-type="participant" data-id="SRC"><rect x="336" y="27" fill="#eaeaea" stroke="#666" width="160" height="44" name="SRC" rx="3" ry="3" class="actor actor-top"/><text x="416" y="49" dominant-baseline="central" alignment-baseline="central" class="actor actor-box" style="text-anchor: middle; font-size: 16px; font-weight: 400;"><tspan x="416" dy="-8">Source MigTD</tspan></text><text x="416" y="49" dominant-baseline="central" alignment-baseline="central" class="actor actor-box" style="text-anchor: middle; font-size: 16px; font-weight: 400;"><tspan x="416" dy="8">requester</tspan></text></g></g><g><line id="actor0" x1="85" y1="71" x2="85" y2="2419" class="actor-line 200" stroke-width="0.5px" stroke="#999" name="TS" data-et="life-line" data-id="TS"/><g id="root-0" data-et="participant" data-type="participant" data-id="TS"><rect x="5" y="27" fill="#eaeaea" stroke="#666" width="160" height="44" name="TS" rx="3" ry="3" class="actor actor-top"/><text x="85" y="49" dominant-baseline="central" alignment-baseline="central" class="actor actor-box" style="text-anchor: middle; font-size: 16px; font-weight: 400;"><tspan x="85" dy="-8">Source TDX</tspan></text><text x="85" y="49" dominant-baseline="central" alignment-baseline="central" class="actor actor-box" style="text-anchor: middle; font-size: 16px; font-weight: 400;"><tspan x="85" dy="8">module</tspan></text></g></g><style>#my-svg{font-size:14px;fill:#1e293b;}@keyframes edge-animation-frame{from{stroke-dashoffset:0;}}@keyframes dash{to{stroke-dashoffset:0;}}#my-svg .edge-animation-slow{stroke-dasharray:9,5!important;stroke-dashoffset:900;animation:dash 50s linear infinite;stroke-linecap:round;}#my-svg .edge-animation-fast{stroke-dasharray:9,5!important;stroke-dashoffset:900;animation:dash 20s linear infinite;stroke-linecap:round;}#my-svg .error-icon{fill:hsl(220.5882352941, 100%, 98.3333333333%);}#my-svg .error-text{fill:rgb(8.5000000002, 5.7500000001, 0);stroke:rgb(8.5000000002, 5.7500000001, 0);}#my-svg .edge-thickness-normal{stroke-width:1px;}#my-svg .edge-thickness-thick{stroke-width:3.5px;}#my-svg .edge-pattern-solid{stroke-dasharray:0;}#my-svg .edge-thickness-invisible{stroke-width:0;fill:none;}#my-svg .edge-pattern-dashed{stroke-dasharray:3;}#my-svg .edge-pattern-dotted{stroke-dasharray:2;}#my-svg .marker{fill:#000000;stroke:#000000;}#my-svg .marker.cross{stroke:#000000;}#my-svg svg{font-size:14px;}#my-svg p{margin:0;}#my-svg .actor{stroke:#60a5fa;fill:#dbeafe;stroke-width:1;}#my-svg rect.actor.outer-path[data-look=&quot;neo&quot;]{filter:drop-shadow( 1px 2px 2px rgba(185,185,185,1));}#my-svg rect.note[data-look=&quot;neo&quot;]{stroke:#c4b5fd;fill:#f5f3ff;filter:drop-shadow( 1px 2px 2px rgba(185,185,185,1));}#my-svg text.actor&gt;tspan{fill:#1e3a8a;stroke:none;}#my-svg .actor-line{stroke:#cbd5e1;}#my-svg .innerArc{stroke-width:1.5;stroke-dasharray:none;}#my-svg .messageLine0{stroke-width:1.5;stroke-dasharray:none;stroke:#64748b;}#my-svg .messageLine1{stroke-width:1.5;stroke-dasharray:2,2;stroke:#64748b;}#my-svg [id$=&quot;-arrowhead&quot;] path{fill:#64748b;stroke:#64748b;}#my-svg .sequenceNumber{fill:#ffffff;}#my-svg [id$=&quot;-sequencenumber&quot;]{fill:#64748b;}#my-svg [id$=&quot;-crosshead&quot;] path{fill:#64748b;stroke:#64748b;}#my-svg .messageText{fill:#1e293b;stroke:none;}#my-svg .labelBox{stroke:#5eead4;fill:#f0fdfa;filter:none;}#my-svg .labelText,#my-svg .labelText&gt;tspan{fill:#115e59;stroke:none;}#my-svg .loopText,#my-svg .loopText&gt;tspan{fill:#1e293b;stroke:none;}#my-svg .sectionTitle,#my-svg .sectionTitle&gt;tspan{fill:#1e293b;stroke:none;}#my-svg .loopLine{stroke-width:2px;stroke-dasharray:2,2;stroke:#5eead4;fill:#5eead4;}#my-svg .note{stroke:#c4b5fd;fill:#f5f3ff;}#my-svg .noteText,#my-svg .noteText&gt;tspan{fill:#4c1d95;stroke:none;font-weight:normal;}#my-svg .activation0{fill:hsl(-79.4117647059, 100%, 93.3333333333%);stroke:hsl(-79.4117647059, 100%, 83.3333333333%);}#my-svg .activation1{fill:hsl(-79.4117647059, 100%, 93.3333333333%);stroke:hsl(-79.4117647059, 100%, 83.3333333333%);}#my-svg .activation2{fill:hsl(-79.4117647059, 100%, 93.3333333333%);stroke:hsl(-79.4117647059, 100%, 83.3333333333%);}#my-svg .actorPopupMenu{position:absolute;}#my-svg .actorPopupMenuPanel{position:absolute;fill:#dbeafe;box-shadow:0px 8px 16px 0px rgba(0,0,0,0.2);filter:drop-shadow(3px 5px 2px rgb(0 0 0 / 0.4));}#my-svg .actor-man circle,#my-svg line{fill:#dbeafe;stroke-width:2px;}#my-svg g rect.rect{filter:drop-shadow( 1px 2px 2px rgba(185,185,185,1));stroke:hsl(40.5882352941, 60%, 83.3333333333%);}#my-svg .node .neo-node{stroke:hsl(40.5882352941, 60%, 83.3333333333%);}#my-svg [data-look=&quot;neo&quot;].node rect,#my-svg [data-look=&quot;neo&quot;].cluster rect,#my-svg [data-look=&quot;neo&quot;].node polygon{stroke:url(#my-svg-gradient);filter:drop-shadow( 1px 2px 2px rgba(185,185,185,1));}#my-svg [data-look=&quot;neo&quot;].swimlane.cluster rect{filter:none;}#my-svg [data-look=&quot;neo&quot;].node path{stroke:url(#my-svg-gradient);stroke-width:1px;}#my-svg [data-look=&quot;neo&quot;].node .outer-path{filter:drop-shadow( 1px 2px 2px rgba(185,185,185,1));}#my-svg [data-look=&quot;neo&quot;].node .neo-line path{stroke:hsl(40.5882352941, 60%, 83.3333333333%);filter:none;}#my-svg [data-look=&quot;neo&quot;].node circle{stroke:url(#my-svg-gradient);filter:drop-shadow( 1px 2px 2px rgba(185,185,185,1));}#my-svg [data-look=&quot;neo&quot;].node circle .state-start{fill:#000000;}#my-svg [data-look=&quot;neo&quot;].icon-shape .icon{fill:url(#my-svg-gradient);filter:drop-shadow( 1px 2px 2px rgba(185,185,185,1));}#my-svg [data-look=&quot;neo&quot;].icon-shape .icon-neo path{stroke:url(#my-svg-gradient);filter:drop-shadow( 1px 2px 2px rgba(185,185,185,1));}#my-svg :root{--mermaid-font-family:&quot;trebuchet ms&quot;,verdana,arial,sans-serif;}</style><g/><defs><symbol id="my-svg-computer" width="24" height="24"><path transform="scale(.5)" d="M2 2v13h20v-13h-20zm18 11h-16v-9h16v9zm-10.228 6l.466-1h3.524l.467 1h-4.457zm14.228 3h-24l2-6h2.104l-1.33 4h18.45l-1.297-4h2.073l2 6zm-5-10h-14v-7h14v7z"/></symbol></defs><defs><symbol id="my-svg-database" fill-rule="evenodd" clip-rule="evenodd"><path transform="scale(.5)" d="M12.258.001l.256.004.255.005.253.008.251.01.249.012.247.015.246.016.242.019.241.02.239.023.236.024.233.027.231.028.229.031.225.032.223.034.22.036.217.038.214.04.211.041.208.043.205.045.201.046.198.048.194.05.191.051.187.053.183.054.18.056.175.057.172.059.168.06.163.061.16.063.155.064.15.066.074.033.073.033.071.034.07.034.069.035.068.035.067.035.066.035.064.036.064.036.062.036.06.036.06.037.058.037.058.037.055.038.055.038.053.038.052.038.051.039.05.039.048.039.047.039.045.04.044.04.043.04.041.04.04.041.039.041.037.041.036.041.034.041.033.042.032.042.03.042.029.042.027.042.026.043.024.043.023.043.021.043.02.043.018.044.017.043.015.044.013.044.012.044.011.045.009.044.007.045.006.045.004.045.002.045.001.045v17l-.001.045-.002.045-.004.045-.006.045-.007.045-.009.044-.011.045-.012.044-.013.044-.015.044-.017.043-.018.044-.02.043-.021.043-.023.043-.024.043-.026.043-.027.042-.029.042-.03.042-.032.042-.033.042-.034.041-.036.041-.037.041-.039.041-.04.041-.041.04-.043.04-.044.04-.045.04-.047.039-.048.039-.05.039-.051.039-.052.038-.053.038-.055.038-.055.038-.058.037-.058.037-.06.037-.06.036-.062.036-.064.036-.064.036-.066.035-.067.035-.068.035-.069.035-.07.034-.071.034-.073.033-.074.033-.15.066-.155.064-.16.063-.163.061-.168.06-.172.059-.175.057-.18.056-.183.054-.187.053-.191.051-.194.05-.198.048-.201.046-.205.045-.208.043-.211.041-.214.04-.217.038-.22.036-.223.034-.225.032-.229.031-.231.028-.233.027-.236.024-.239.023-.241.02-.242.019-.246.016-.247.015-.249.012-.251.01-.253.008-.255.005-.256.004-.258.001-.258-.001-.256-.004-.255-.005-.253-.008-.251-.01-.249-.012-.247-.015-.245-.016-.243-.019-.241-.02-.238-.023-.236-.024-.234-.027-.231-.028-.228-.031-.226-.032-.223-.034-.22-.036-.217-.038-.214-.04-.211-.041-.208-.043-.204-.045-.201-.046-.198-.048-.195-.05-.19-.051-.187-.053-.184-.054-.179-.056-.176-.057-.172-.059-.167-.06-.164-.061-.159-.063-.155-.064-.151-.066-.074-.033-.072-.033-.072-.034-.07-.034-.069-.035-.068-.035-.067-.035-.066-.035-.064-.036-.063-.036-.062-.036-.061-.036-.06-.037-.058-.037-.057-.037-.056-.038-.055-.038-.053-.038-.052-.038-.051-.039-.049-.039-.049-.039-.046-.039-.046-.04-.044-.04-.043-.04-.041-.04-.04-.041-.039-.041-.037-.041-.036-.041-.034-.041-.033-.042-.032-.042-.03-.042-.029-.042-.027-.042-.026-.043-.024-.043-.023-.043-.021-.043-.02-.043-.018-.044-.017-.043-.015-.044-.013-.044-.012-.044-.011-.045-.009-.044-.007-.045-.006-.045-.004-.045-.002-.045-.001-.045v-17l.001-.045.002-.045.004-.045.006-.045.007-.045.009-.044.011-.045.012-.044.013-.044.015-.044.017-.043.018-.044.02-.043.021-.043.023-.043.024-.043.026-.043.027-.042.029-.042.03-.042.032-.042.033-.042.034-.041.036-.041.037-.041.039-.041.04-.041.041-.04.043-.04.044-.04.046-.04.046-.039.049-.039.049-.039.051-.039.052-.038.053-.038.055-.038.056-.038.057-.037.058-.037.06-.037.061-.036.062-.036.063-.036.064-.036.066-.035.067-.035.068-.035.069-.035.07-.034.072-.034.072-.033.074-.033.151-.066.155-.064.159-.063.164-.061.167-.06.172-.059.176-.057.179-.056.184-.054.187-.053.19-.051.195-.05.198-.048.201-.046.204-.045.208-.043.211-.041.214-.04.217-.038.22-.036.223-.034.226-.032.228-.031.231-.028.234-.027.236-.024.238-.023.241-.02.243-.019.245-.016.247-.015.249-.012.251-.01.253-.008.255-.005.256-.004.258-.001.258.001zm-9.258 20.499v.01l.001.021.003.021.004.022.005.021.006.022.007.022.009.023.01.022.011.023.012.023.013.023.015.023.016.024.017.023.018.024.019.024.021.024.022.025.023.024.024.025.052.049.056.05.061.051.066.051.07.051.075.051.079.052.084.052.088.052.092.052.097.052.102.051.105.052.11.052.114.051.119.051.123.051.127.05.131.05.135.05.139.048.144.049.147.047.152.047.155.047.16.045.163.045.167.043.171.043.176.041.178.041.183.039.187.039.19.037.194.035.197.035.202.033.204.031.209.03.212.029.216.027.219.025.222.024.226.021.23.02.233.018.236.016.24.015.243.012.246.01.249.008.253.005.256.004.259.001.26-.001.257-.004.254-.005.25-.008.247-.011.244-.012.241-.014.237-.016.233-.018.231-.021.226-.021.224-.024.22-.026.216-.027.212-.028.21-.031.205-.031.202-.034.198-.034.194-.036.191-.037.187-.039.183-.04.179-.04.175-.042.172-.043.168-.044.163-.045.16-.046.155-.046.152-.047.148-.048.143-.049.139-.049.136-.05.131-.05.126-.05.123-.051.118-.052.114-.051.11-.052.106-.052.101-.052.096-.052.092-.052.088-.053.083-.051.079-.052.074-.052.07-.051.065-.051.06-.051.056-.05.051-.05.023-.024.023-.025.021-.024.02-.024.019-.024.018-.024.017-.024.015-.023.014-.024.013-.023.012-.023.01-.023.01-.022.008-.022.006-.022.006-.022.004-.022.004-.021.001-.021.001-.021v-4.127l-.077.055-.08.053-.083.054-.085.053-.087.052-.09.052-.093.051-.095.05-.097.05-.1.049-.102.049-.105.048-.106.047-.109.047-.111.046-.114.045-.115.045-.118.044-.12.043-.122.042-.124.042-.126.041-.128.04-.13.04-.132.038-.134.038-.135.037-.138.037-.139.035-.142.035-.143.034-.144.033-.147.032-.148.031-.15.03-.151.03-.153.029-.154.027-.156.027-.158.026-.159.025-.161.024-.162.023-.163.022-.165.021-.166.02-.167.019-.169.018-.169.017-.171.016-.173.015-.173.014-.175.013-.175.012-.177.011-.178.01-.179.008-.179.008-.181.006-.182.005-.182.004-.184.003-.184.002h-.37l-.184-.002-.184-.003-.182-.004-.182-.005-.181-.006-.179-.008-.179-.008-.178-.01-.176-.011-.176-.012-.175-.013-.173-.014-.172-.015-.171-.016-.17-.017-.169-.018-.167-.019-.166-.02-.165-.021-.163-.022-.162-.023-.161-.024-.159-.025-.157-.026-.156-.027-.155-.027-.153-.029-.151-.03-.15-.03-.148-.031-.146-.032-.145-.033-.143-.034-.141-.035-.14-.035-.137-.037-.136-.037-.134-.038-.132-.038-.13-.04-.128-.04-.126-.041-.124-.042-.122-.042-.12-.044-.117-.043-.116-.045-.113-.045-.112-.046-.109-.047-.106-.047-.105-.048-.102-.049-.1-.049-.097-.05-.095-.05-.093-.052-.09-.051-.087-.052-.085-.053-.083-.054-.08-.054-.077-.054v4.127zm0-5.654v.011l.001.021.003.021.004.021.005.022.006.022.007.022.009.022.01.022.011.023.012.023.013.023.015.024.016.023.017.024.018.024.019.024.021.024.022.024.023.025.024.024.052.05.056.05.061.05.066.051.07.051.075.052.079.051.084.052.088.052.092.052.097.052.102.052.105.052.11.051.114.051.119.052.123.05.127.051.131.05.135.049.139.049.144.048.147.048.152.047.155.046.16.045.163.045.167.044.171.042.176.042.178.04.183.04.187.038.19.037.194.036.197.034.202.033.204.032.209.03.212.028.216.027.219.025.222.024.226.022.23.02.233.018.236.016.24.014.243.012.246.01.249.008.253.006.256.003.259.001.26-.001.257-.003.254-.006.25-.008.247-.01.244-.012.241-.015.237-.016.233-.018.231-.02.226-.022.224-.024.22-.025.216-.027.212-.029.21-.03.205-.032.202-.033.198-.035.194-.036.191-.037.187-.039.183-.039.179-.041.175-.042.172-.043.168-.044.163-.045.16-.045.155-.047.152-.047.148-.048.143-.048.139-.05.136-.049.131-.05.126-.051.123-.051.118-.051.114-.052.11-.052.106-.052.101-.052.096-.052.092-.052.088-.052.083-.052.079-.052.074-.051.07-.052.065-.051.06-.05.056-.051.051-.049.023-.025.023-.024.021-.025.02-.024.019-.024.018-.024.017-.024.015-.023.014-.023.013-.024.012-.022.01-.023.01-.023.008-.022.006-.022.006-.022.004-.021.004-.022.001-.021.001-.021v-4.139l-.077.054-.08.054-.083.054-.085.052-.087.053-.09.051-.093.051-.095.051-.097.05-.1.049-.102.049-.105.048-.106.047-.109.047-.111.046-.114.045-.115.044-.118.044-.12.044-.122.042-.124.042-.126.041-.128.04-.13.039-.132.039-.134.038-.135.037-.138.036-.139.036-.142.035-.143.033-.144.033-.147.033-.148.031-.15.03-.151.03-.153.028-.154.028-.156.027-.158.026-.159.025-.161.024-.162.023-.163.022-.165.021-.166.02-.167.019-.169.018-.169.017-.171.016-.173.015-.173.014-.175.013-.175.012-.177.011-.178.009-.179.009-.179.007-.181.007-.182.005-.182.004-.184.003-.184.002h-.37l-.184-.002-.184-.003-.182-.004-.182-.005-.181-.007-.179-.007-.179-.009-.178-.009-.176-.011-.176-.012-.175-.013-.173-.014-.172-.015-.171-.016-.17-.017-.169-.018-.167-.019-.166-.02-.165-.021-.163-.022-.162-.023-.161-.024-.159-.025-.157-.026-.156-.027-.155-.028-.153-.028-.151-.03-.15-.03-.148-.031-.146-.033-.145-.033-.143-.033-.141-.035-.14-.036-.137-.036-.136-.037-.134-.038-.132-.039-.13-.039-.128-.04-.126-.041-.124-.042-.122-.043-.12-.043-.117-.044-.116-.044-.113-.046-.112-.046-.109-.046-.106-.047-.105-.048-.102-.049-.1-.049-.097-.05-.095-.051-.093-.051-.09-.051-.087-.053-.085-.052-.083-.054-.08-.054-.077-.054v4.139zm0-5.666v.011l.001.02.003.022.004.021.005.022.006.021.007.022.009.023.01.022.011.023.012.023.013.023.015.023.016.024.017.024.018.023.019.024.021.025.022.024.023.024.024.025.052.05.056.05.061.05.066.051.07.051.075.052.079.051.084.052.088.052.092.052.097.052.102.052.105.051.11.052.114.051.119.051.123.051.127.05.131.05.135.05.139.049.144.048.147.048.152.047.155.046.16.045.163.045.167.043.171.043.176.042.178.04.183.04.187.038.19.037.194.036.197.034.202.033.204.032.209.03.212.028.216.027.219.025.222.024.226.021.23.02.233.018.236.017.24.014.243.012.246.01.249.008.253.006.256.003.259.001.26-.001.257-.003.254-.006.25-.008.247-.01.244-.013.241-.014.237-.016.233-.018.231-.02.226-.022.224-.024.22-.025.216-.027.212-.029.21-.03.205-.032.202-.033.198-.035.194-.036.191-.037.187-.039.183-.039.179-.041.175-.042.172-.043.168-.044.163-.045.16-.045.155-.047.152-.047.148-.048.143-.049.139-.049.136-.049.131-.051.126-.05.123-.051.118-.052.114-.051.11-.052.106-.052.101-.052.096-.052.092-.052.088-.052.083-.052.079-.052.074-.052.07-.051.065-.051.06-.051.056-.05.051-.049.023-.025.023-.025.021-.024.02-.024.019-.024.018-.024.017-.024.015-.023.014-.024.013-.023.012-.023.01-.022.01-.023.008-.022.006-.022.006-.022.004-.022.004-.021.001-.021.001-.021v-4.153l-.077.054-.08.054-.083.053-.085.053-.087.053-.09.051-.093.051-.095.051-.097.05-.1.049-.102.048-.105.048-.106.048-.109.046-.111.046-.114.046-.115.044-.118.044-.12.043-.122.043-.124.042-.126.041-.128.04-.13.039-.132.039-.134.038-.135.037-.138.036-.139.036-.142.034-.143.034-.144.033-.147.032-.148.032-.15.03-.151.03-.153.028-.154.028-.156.027-.158.026-.159.024-.161.024-.162.023-.163.023-.165.021-.166.02-.167.019-.169.018-.169.017-.171.016-.173.015-.173.014-.175.013-.175.012-.177.01-.178.01-.179.009-.179.007-.181.006-.182.006-.182.004-.184.003-.184.001-.185.001-.185-.001-.184-.001-.184-.003-.182-.004-.182-.006-.181-.006-.179-.007-.179-.009-.178-.01-.176-.01-.176-.012-.175-.013-.173-.014-.172-.015-.171-.016-.17-.017-.169-.018-.167-.019-.166-.02-.165-.021-.163-.023-.162-.023-.161-.024-.159-.024-.157-.026-.156-.027-.155-.028-.153-.028-.151-.03-.15-.03-.148-.032-.146-.032-.145-.033-.143-.034-.141-.034-.14-.036-.137-.036-.136-.037-.134-.038-.132-.039-.13-.039-.128-.041-.126-.041-.124-.041-.122-.043-.12-.043-.117-.044-.116-.044-.113-.046-.112-.046-.109-.046-.106-.048-.105-.048-.102-.048-.1-.05-.097-.049-.095-.051-.093-.051-.09-.052-.087-.052-.085-.053-.083-.053-.08-.054-.077-.054v4.153zm8.74-8.179l-.257.004-.254.005-.25.008-.247.011-.244.012-.241.014-.237.016-.233.018-.231.021-.226.022-.224.023-.22.026-.216.027-.212.028-.21.031-.205.032-.202.033-.198.034-.194.036-.191.038-.187.038-.183.04-.179.041-.175.042-.172.043-.168.043-.163.045-.16.046-.155.046-.152.048-.148.048-.143.048-.139.049-.136.05-.131.05-.126.051-.123.051-.118.051-.114.052-.11.052-.106.052-.101.052-.096.052-.092.052-.088.052-.083.052-.079.052-.074.051-.07.052-.065.051-.06.05-.056.05-.051.05-.023.025-.023.024-.021.024-.02.025-.019.024-.018.024-.017.023-.015.024-.014.023-.013.023-.012.023-.01.023-.01.022-.008.022-.006.023-.006.021-.004.022-.004.021-.001.021-.001.021.001.021.001.021.004.021.004.022.006.021.006.023.008.022.01.022.01.023.012.023.013.023.014.023.015.024.017.023.018.024.019.024.02.025.021.024.023.024.023.025.051.05.056.05.06.05.065.051.07.052.074.051.079.052.083.052.088.052.092.052.096.052.101.052.106.052.11.052.114.052.118.051.123.051.126.051.131.05.136.05.139.049.143.048.148.048.152.048.155.046.16.046.163.045.168.043.172.043.175.042.179.041.183.04.187.038.191.038.194.036.198.034.202.033.205.032.21.031.212.028.216.027.22.026.224.023.226.022.231.021.233.018.237.016.241.014.244.012.247.011.25.008.254.005.257.004.26.001.26-.001.257-.004.254-.005.25-.008.247-.011.244-.012.241-.014.237-.016.233-.018.231-.021.226-.022.224-.023.22-.026.216-.027.212-.028.21-.031.205-.032.202-.033.198-.034.194-.036.191-.038.187-.038.183-.04.179-.041.175-.042.172-.043.168-.043.163-.045.16-.046.155-.046.152-.048.148-.048.143-.048.139-.049.136-.05.131-.05.126-.051.123-.051.118-.051.114-.052.11-.052.106-.052.101-.052.096-.052.092-.052.088-.052.083-.052.079-.052.074-.051.07-.052.065-.051.06-.05.056-.05.051-.05.023-.025.023-.024.021-.024.02-.025.019-.024.018-.024.017-.023.015-.024.014-.023.013-.023.012-.023.01-.023.01-.022.008-.022.006-.023.006-.021.004-.022.004-.021.001-.021.001-.021-.001-.021-.001-.021-.004-.021-.004-.022-.006-.021-.006-.023-.008-.022-.01-.022-.01-.023-.012-.023-.013-.023-.014-.023-.015-.024-.017-.023-.018-.024-.019-.024-.02-.025-.021-.024-.023-.024-.023-.025-.051-.05-.056-.05-.06-.05-.065-.051-.07-.052-.074-.051-.079-.052-.083-.052-.088-.052-.092-.052-.096-.052-.101-.052-.106-.052-.11-.052-.114-.052-.118-.051-.123-.051-.126-.051-.131-.05-.136-.05-.139-.049-.143-.048-.148-.048-.152-.048-.155-.046-.16-.046-.163-.045-.168-.043-.172-.043-.175-.042-.179-.041-.183-.04-.187-.038-.191-.038-.194-.036-.198-.034-.202-.033-.205-.032-.21-.031-.212-.028-.216-.027-.22-.026-.224-.023-.226-.022-.231-.021-.233-.018-.237-.016-.241-.014-.244-.012-.247-.011-.25-.008-.254-.005-.257-.004-.26-.001-.26.001z"/></symbol></defs><defs><symbol id="my-svg-clock" width="24" height="24"><path transform="scale(.5)" d="M12 2c5.514 0 10 4.486 10 10s-4.486 10-10 10-10-4.486-10-10 4.486-10 10-10zm0-2c-6.627 0-12 5.373-12 12s5.373 12 12 12 12-5.373 12-12-5.373-12-12-12zm5.848 12.459c.202.038.202.333.001.372-1.907.361-6.045 1.111-6.547 1.111-.719 0-1.301-.582-1.301-1.301 0-.512.77-5.447 1.125-7.445.034-.192.312-.181.343.014l.985 6.238 5.394 1.011z"/></symbol></defs><defs><marker id="my-svg-arrowhead" refX="7.9" refY="5" markerUnits="userSpaceOnUse" markerWidth="12" markerHeight="12" orient="auto-start-reverse"><path d="M -1 0 L 10 5 L 0 10 z"/></marker></defs><defs><marker id="my-svg-crosshead" markerWidth="15" markerHeight="8" orient="auto" refX="4" refY="4.5"><path fill="none" stroke="#000000" stroke-width="1pt" d="M 1,2 L 6,7 M 6,2 L 1,7" style="stroke-dasharray: 0, 0;"/></marker></defs><defs><marker id="my-svg-filled-head" refX="15.5" refY="7" markerWidth="20" markerHeight="28" orient="auto"><path d="M 18,7 L9,13 L14,7 L9,1 Z"/></marker></defs><defs><marker id="my-svg-sequencenumber" refX="15" refY="15" markerWidth="60" markerHeight="40" orient="auto"><circle cx="15" cy="15" r="6"/></marker></defs><defs><marker id="my-svg-solidTopArrowHead" refX="7.9" refY="7.25" markerUnits="userSpaceOnUse" markerWidth="12" markerHeight="12" orient="auto-start-reverse"><path d="M 0 0 L 10 8 L 0 8 z"/></marker></defs><defs><marker id="my-svg-solidBottomArrowHead" refX="7.9" refY="0.75" markerUnits="userSpaceOnUse" markerWidth="12" markerHeight="12" orient="auto-start-reverse"><path d="M 0 0 L 10 0 L 0 8 z"/></marker></defs><defs><marker id="my-svg-stickTopArrowHead" refX="7.5" refY="7" markerUnits="userSpaceOnUse" markerWidth="12" markerHeight="12" orient="auto-start-reverse"><path d="M 0 0 L 7 7" stroke="black" stroke-width="1.5" fill="none"/></marker></defs><defs><marker id="my-svg-stickBottomArrowHead" refX="7.5" refY="0" markerUnits="userSpaceOnUse" markerWidth="12" markerHeight="12" orient="auto-start-reverse"><path d="M 0 7 L 7 0" stroke="black" stroke-width="1.5" fill="none"/></marker></defs><g data-et="note" data-id="i1"><rect x="71" y="95" fill="#EDF2AE" stroke="#666" width="1635" height="35" class="note"/><text x="889" y="99" text-anchor="middle" dominant-baseline="middle" alignment-baseline="middle" class="noteText" dy="1em" style="font-size: 16px; font-weight: 400;"><tspan x="889">Initialize migration</tspan></text></g><g data-et="note" data-id="i10"><rect x="402" y="438" fill="#EDF2AE" stroke="#666" width="982" height="35" class="note"/><text x="893" y="442" text-anchor="middle" dominant-baseline="middle" alignment-baseline="middle" class="noteText" dy="1em" style="font-size: 16px; font-weight: 400;"><tspan x="893">Establish transport and exchange untrusted peer data</tspan></text></g><g data-et="note" data-id="i16"><rect x="402" y="711" fill="#EDF2AE" stroke="#666" width="982" height="54" class="note"/><text x="893" y="715" text-anchor="middle" dominant-baseline="middle" alignment-baseline="middle" class="noteText" dy="1em" style="font-size: 16px; font-weight: 400;"><tspan x="893">Policy and signer-anchor source</tspan></text><text x="893" y="734" text-anchor="middle" dominant-baseline="middle" alignment-baseline="middle" class="noteText" dy="1em" style="font-size: 16px; font-weight: 400;"><tspan x="893">plus signed CoRIM only when separately enabled</tspan></text></g><g data-et="note" data-id="i23"><rect x="402" y="1019" fill="#EDF2AE" stroke="#666" width="982" height="35" class="note"/><text x="893" y="1023" text-anchor="middle" dominant-baseline="middle" alignment-baseline="middle" class="noteText" dy="1em" style="font-size: 16px; font-weight: 400;"><tspan x="893">Mutually attested SPDM 1.2 session</tspan></text></g><g data-et="note" data-id="i27"><rect x="402" y="1238" fill="#EDF2AE" stroke="#666" width="982" height="54" class="note"/><text x="893" y="1242" text-anchor="middle" dominant-baseline="middle" alignment-baseline="middle" class="noteText" dy="1em" style="font-size: 16px; font-weight: 400;"><tspan x="893">Verify peer evidence, policy, mappings and TH1 binding</tspan></text><text x="893" y="1261" text-anchor="middle" dominant-baseline="middle" alignment-baseline="middle" class="noteText" dy="1em" style="font-size: 16px; font-weight: 400;"><tspan x="893">Destination also validates source service-TD continuity</tspan></text></g><g data-et="note" data-id="i32"><rect x="402" y="1416" fill="#EDF2AE" stroke="#666" width="982" height="35" class="note"/><text x="893" y="1420" text-anchor="middle" dominant-baseline="middle" alignment-baseline="middle" class="noteText" dy="1em" style="font-size: 16px; font-weight: 400;"><tspan x="893">Exchange migration material over the secured session</tspan></text></g><g data-et="note" data-id="i41"><rect x="71" y="1759" fill="#EDF2AE" stroke="#666" width="1635" height="35" class="note"/><text x="889" y="1763" text-anchor="middle" dominant-baseline="middle" alignment-baseline="middle" class="noteText" dy="1em" style="font-size: 16px; font-weight: 400;"><tspan x="889">Validate and write target-TD state</tspan></text></g><g data-et="control-structure" data-id="i49"><line x1="1361" y1="2171" x2="1701" y2="2171" class="loopLine"/><line x1="1701" y1="2171" x2="1701" y2="2260" class="loopLine"/><line x1="1361" y1="2260" x2="1701" y2="2260" class="loopLine"/><line x1="1361" y1="2171" x2="1361" y2="2260" class="loopLine"/><polygon points="1361,2171 1411,2171 1411,2184 1402.6,2191 1361,2191" class="labelBox"/><text x="1386" y="2184" text-anchor="middle" dominant-baseline="middle" alignment-baseline="middle" class="labelText" style="font-size: 16px; font-weight: 400;">opt</text><text x="1556" y="2187" text-anchor="middle" class="loopText" style="font-size: 16px; font-weight: 400;"><tspan x="1556">[Source SERVTD_EXT received]</tspan></text></g><g data-et="note" data-id="i50"><rect x="402" y="2268" fill="#EDF2AE" stroke="#666" width="982" height="35" class="note"/><text x="893" y="2272" text-anchor="middle" dominant-baseline="middle" alignment-baseline="middle" class="noteText" dy="1em" style="font-size: 16px; font-weight: 400;"><tspan x="893">Sensitive MigrationSessionKey copies are zeroized on drop</tspan></text></g><text x="581" y="145" text-anchor="middle" dominant-baseline="middle" alignment-baseline="middle" class="messageText" dy="1em" style="font-size: 16px; font-weight: 400;">Launch MigTD</text><line x1="741" y1="176" x2="420" y2="176" class="messageLine0" data-et="message" data-id="i2" data-from="VS" data-to="SRC" stroke-width="2" stroke="none" marker-end="url(#my-svg-arrowhead)" style="fill: none;"/><text x="1189" y="191" text-anchor="middle" dominant-baseline="middle" alignment-baseline="middle" class="messageText" dy="1em" style="font-size: 16px; font-weight: 400;">Launch MigTD</text><line x1="1011" y1="222" x2="1366" y2="222" class="messageLine0" data-et="message" data-id="i3" data-from="VD" data-to="DST" stroke-width="2" stroke="none" marker-end="url(#my-svg-arrowhead)" style="fill: none;"/><text x="415" y="237" text-anchor="middle" dominant-baseline="middle" alignment-baseline="middle" class="messageText" dy="1em" style="font-size: 16px; font-weight: 400;">Bind MigTD to target TD</text><line x1="741" y1="268" x2="89" y2="268" class="messageLine0" data-et="message" data-id="i4" data-from="VS" data-to="TS" stroke-width="2" stroke="none" marker-end="url(#my-svg-arrowhead)" style="fill: none;"/><text x="1350" y="283" text-anchor="middle" dominant-baseline="middle" alignment-baseline="middle" class="messageText" dy="1em" style="font-size: 16px; font-weight: 400;">Bind MigTD to target TD</text><line x1="1011" y1="314" x2="1688" y2="314" class="messageLine0" data-et="message" data-id="i5" data-from="VD" data-to="TD" stroke-width="2" stroke="none" marker-end="url(#my-svg-arrowhead)" style="fill: none;"/><text x="581" y="329" text-anchor="middle" dominant-baseline="middle" alignment-baseline="middle" class="messageText" dy="1em" style="font-size: 16px; font-weight: 400;">StartMigration(source information)</text><line x1="741" y1="360" x2="420" y2="360" class="messageLine1" data-et="message" data-id="i6" data-from="VS" data-to="SRC" stroke-width="2" stroke="none" marker-end="url(#my-svg-arrowhead)" style="stroke-dasharray: 3, 3; fill: none;"/><text x="1189" y="375" text-anchor="middle" dominant-baseline="middle" alignment-baseline="middle" class="messageText" dy="1em" style="font-size: 16px; font-weight: 400;">StartMigration(destination information)</text><line x1="1011" y1="406" x2="1366" y2="406" class="messageLine1" data-et="message" data-id="i7" data-from="VD" data-to="DST" stroke-width="2" stroke="none" marker-end="url(#my-svg-arrowhead)" style="stroke-dasharray: 3, 3; fill: none;"/><text x="578" y="488" text-anchor="middle" dominant-baseline="middle" alignment-baseline="middle" class="messageText" dy="1em" style="font-size: 16px; font-weight: 400;">Connect vmcall-raw endpoint</text><line x1="417" y1="519" x2="738" y2="519" class="messageLine0" data-et="message" data-id="i11" data-from="SRC" data-to="VS" stroke-width="2" stroke="none" marker-end="url(#my-svg-arrowhead)" style="fill: none;"/><text x="1192" y="534" text-anchor="middle" dominant-baseline="middle" alignment-baseline="middle" class="messageText" dy="1em" style="font-size: 16px; font-weight: 400;">Connect vmcall-raw endpoint</text><line x1="1369" y1="565" x2="1014" y2="565" class="messageLine0" data-et="message" data-id="i12" data-from="DST" data-to="VD" stroke-width="2" stroke="none" marker-end="url(#my-svg-arrowhead)" style="fill: none;"/><text x="875" y="580" text-anchor="middle" dominant-baseline="middle" alignment-baseline="middle" class="messageText" dy="1em" style="font-size: 16px; font-weight: 400;">Bridge migration channel</text><line x1="743" y1="611" x2="1006" y2="611" class="messageLine0" data-et="message" data-id="i13" data-from="VS" data-to="VD" stroke-width="2" stroke="none" marker-end="url(#my-svg-arrowhead)" style="fill: none;"/><text x="892" y="626" text-anchor="middle" dominant-baseline="middle" alignment-baseline="middle" class="messageText" dy="1em" style="font-size: 16px; font-weight: 400;">Hello and peer data</text><line x1="417" y1="657" x2="1366" y2="657" class="messageLine0" data-et="message" data-id="i14" data-from="SRC" data-to="DST" stroke-width="2" stroke="none" marker-end="url(#my-svg-arrowhead)" style="fill: none;"/><text x="895" y="672" text-anchor="middle" dominant-baseline="middle" alignment-baseline="middle" class="messageText" dy="1em" style="font-size: 16px; font-weight: 400;">Hello and peer data</text><line x1="1369" y1="703" x2="420" y2="703" class="messageLine1" data-et="message" data-id="i15" data-from="DST" data-to="SRC" stroke-width="2" stroke="none" marker-end="url(#my-svg-arrowhead)" style="stroke-dasharray: 3, 3; fill: none;"/><text x="892" y="780" text-anchor="middle" dominant-baseline="middle" alignment-baseline="middle" class="messageText" dy="1em" style="font-size: 16px; font-weight: 400;">StartSession</text><line x1="417" y1="811" x2="1366" y2="811" class="messageLine0" data-et="message" data-id="i17" data-from="SRC" data-to="DST" stroke-width="2" stroke="none" marker-end="url(#my-svg-arrowhead)" style="fill: none;"/><text x="895" y="826" text-anchor="middle" dominant-baseline="middle" alignment-baseline="middle" class="messageText" dy="1em" style="font-size: 16px; font-weight: 400;">StartSession</text><line x1="1369" y1="857" x2="420" y2="857" class="messageLine1" data-et="message" data-id="i18" data-from="DST" data-to="SRC" stroke-width="2" stroke="none" marker-end="url(#my-svg-arrowhead)" style="stroke-dasharray: 3, 3; fill: none;"/><text x="252" y="872" text-anchor="middle" dominant-baseline="middle" alignment-baseline="middle" class="messageText" dy="1em" style="font-size: 16px; font-weight: 400;">Read forward encryption key</text><text x="252" y="891" text-anchor="middle" dominant-baseline="middle" alignment-baseline="middle" class="messageText" dy="1em" style="font-size: 16px; font-weight: 400;">and export-version range</text><line x1="415" y1="922" x2="89" y2="922" class="messageLine0" data-et="message" data-id="i19" data-from="SRC" data-to="TS" stroke-width="2" stroke="none" marker-end="url(#my-svg-arrowhead)" style="fill: none;"/><text x="1530" y="937" text-anchor="middle" dominant-baseline="middle" alignment-baseline="middle" class="messageText" dy="1em" style="font-size: 16px; font-weight: 400;">Read backward encryption key</text><text x="1530" y="956" text-anchor="middle" dominant-baseline="middle" alignment-baseline="middle" class="messageText" dy="1em" style="font-size: 16px; font-weight: 400;">and import-version range</text><line x1="1371" y1="987" x2="1688" y2="987" class="messageLine0" data-et="message" data-id="i20" data-from="DST" data-to="TD" stroke-width="2" stroke="none" marker-end="url(#my-svg-arrowhead)" style="fill: none;"/><text x="892" y="1069" text-anchor="middle" dominant-baseline="middle" alignment-baseline="middle" class="messageText" dy="1em" style="font-size: 16px; font-weight: 400;">Negotiation and key exchange</text><line x1="417" y1="1100" x2="1366" y2="1100" class="messageLine0" data-et="message" data-id="i24" data-from="SRC" data-to="DST" stroke-width="2" stroke="none" marker-end="url(#my-svg-arrowhead)" style="fill: none;"/><text x="892" y="1115" text-anchor="middle" dominant-baseline="middle" alignment-baseline="middle" class="messageText" dy="1em" style="font-size: 16px; font-weight: 400;">Source quote, event log,</text><text x="892" y="1134" text-anchor="middle" dominant-baseline="middle" alignment-baseline="middle" class="messageText" dy="1em" style="font-size: 16px; font-weight: 400;">peer-data hash and SERVTD_EXT</text><line x1="417" y1="1165" x2="1366" y2="1165" class="messageLine0" data-et="message" data-id="i25" data-from="SRC" data-to="DST" stroke-width="2" stroke="none" marker-end="url(#my-svg-arrowhead)" style="fill: none;"/><text x="895" y="1180" text-anchor="middle" dominant-baseline="middle" alignment-baseline="middle" class="messageText" dy="1em" style="font-size: 16px; font-weight: 400;">Destination quote, event log</text><text x="895" y="1199" text-anchor="middle" dominant-baseline="middle" alignment-baseline="middle" class="messageText" dy="1em" style="font-size: 16px; font-weight: 400;">and peer-data hash</text><line x1="1369" y1="1230" x2="420" y2="1230" class="messageLine1" data-et="message" data-id="i26" data-from="DST" data-to="SRC" stroke-width="2" stroke="none" marker-end="url(#my-svg-arrowhead)" style="stroke-dasharray: 3, 3; fill: none;"/><text x="892" y="1307" text-anchor="middle" dominant-baseline="middle" alignment-baseline="middle" class="messageText" dy="1em" style="font-size: 16px; font-weight: 400;">FINISH</text><line x1="417" y1="1338" x2="1366" y2="1338" class="messageLine0" data-et="message" data-id="i28" data-from="SRC" data-to="DST" stroke-width="2" stroke="none" marker-end="url(#my-svg-arrowhead)" style="fill: none;"/><text x="895" y="1353" text-anchor="middle" dominant-baseline="middle" alignment-baseline="middle" class="messageText" dy="1em" style="font-size: 16px; font-weight: 400;">FINISH_RSP</text><line x1="1369" y1="1384" x2="420" y2="1384" class="messageLine1" data-et="message" data-id="i29" data-from="DST" data-to="SRC" stroke-width="2" stroke="none" marker-end="url(#my-svg-arrowhead)" style="stroke-dasharray: 3, 3; fill: none;"/><text x="892" y="1466" text-anchor="middle" dominant-baseline="middle" alignment-baseline="middle" class="messageText" dy="1em" style="font-size: 16px; font-weight: 400;">Forward MSK and export-version range</text><line x1="417" y1="1497" x2="1366" y2="1497" class="messageLine0" data-et="message" data-id="i33" data-from="SRC" data-to="DST" stroke-width="2" stroke="none" marker-end="url(#my-svg-arrowhead)" style="fill: none;"/><text x="895" y="1512" text-anchor="middle" dominant-baseline="middle" alignment-baseline="middle" class="messageText" dy="1em" style="font-size: 16px; font-weight: 400;">Backward MSK and import-version range</text><line x1="1369" y1="1543" x2="420" y2="1543" class="messageLine1" data-et="message" data-id="i34" data-from="DST" data-to="SRC" stroke-width="2" stroke="none" marker-end="url(#my-svg-arrowhead)" style="stroke-dasharray: 3, 3; fill: none;"/><text x="892" y="1558" text-anchor="middle" dominant-baseline="middle" alignment-baseline="middle" class="messageText" dy="1em" style="font-size: 16px; font-weight: 400;">END_SESSION</text><line x1="417" y1="1589" x2="1366" y2="1589" class="messageLine0" data-et="message" data-id="i35" data-from="SRC" data-to="DST" stroke-width="2" stroke="none" marker-end="url(#my-svg-arrowhead)" style="fill: none;"/><text x="895" y="1604" text-anchor="middle" dominant-baseline="middle" alignment-baseline="middle" class="messageText" dy="1em" style="font-size: 16px; font-weight: 400;">END_SESSION_ACK</text><line x1="1369" y1="1635" x2="420" y2="1635" class="messageLine1" data-et="message" data-id="i36" data-from="DST" data-to="SRC" stroke-width="2" stroke="none" marker-end="url(#my-svg-arrowhead)" style="stroke-dasharray: 3, 3; fill: none;"/><text x="578" y="1650" text-anchor="middle" dominant-baseline="middle" alignment-baseline="middle" class="messageText" dy="1em" style="font-size: 16px; font-weight: 400;">Close vmcall-raw endpoint</text><line x1="417" y1="1681" x2="738" y2="1681" class="messageLine0" data-et="message" data-id="i37" data-from="SRC" data-to="VS" stroke-width="2" stroke="none" marker-end="url(#my-svg-arrowhead)" style="fill: none;"/><text x="1192" y="1696" text-anchor="middle" dominant-baseline="middle" alignment-baseline="middle" class="messageText" dy="1em" style="font-size: 16px; font-weight: 400;">Close vmcall-raw endpoint</text><line x1="1369" y1="1727" x2="1014" y2="1727" class="messageLine0" data-et="message" data-id="i38" data-from="DST" data-to="VD" stroke-width="2" stroke="none" marker-end="url(#my-svg-arrowhead)" style="fill: none;"/><text x="417" y="1809" text-anchor="middle" dominant-baseline="middle" alignment-baseline="middle" class="messageText" dy="1em" style="font-size: 16px; font-weight: 400;">Select compatible</text><text x="417" y="1828" text-anchor="middle" dominant-baseline="middle" alignment-baseline="middle" class="messageText" dy="1em" style="font-size: 16px; font-weight: 400;">migration version</text><path d="M 417,1859 C 477,1849 477,1889 417,1879" class="messageLine0" data-et="message" data-id="i42" data-from="SRC" data-to="SRC" stroke-width="2" stroke="none" marker-end="url(#my-svg-arrowhead)" style="fill: none;"/><text x="1530" y="1904" text-anchor="middle" dominant-baseline="middle" alignment-baseline="middle" class="messageText" dy="1em" style="font-size: 16px; font-weight: 400;">Read SERVTD_ATTR</text><line x1="1371" y1="1935" x2="1688" y2="1935" class="messageLine0" data-et="message" data-id="i43" data-from="DST" data-to="TD" stroke-width="2" stroke="none" marker-end="url(#my-svg-arrowhead)" style="fill: none;"/><text x="1371" y="1950" text-anchor="middle" dominant-baseline="middle" alignment-baseline="middle" class="messageText" dy="1em" style="font-size: 16px; font-weight: 400;">Validate attributes</text><text x="1371" y="1969" text-anchor="middle" dominant-baseline="middle" alignment-baseline="middle" class="messageText" dy="1em" style="font-size: 16px; font-weight: 400;">and select version</text><path d="M 1371,2000 C 1431,1990 1431,2030 1371,2020" class="messageLine0" data-et="message" data-id="i44" data-from="DST" data-to="DST" stroke-width="2" stroke="none" marker-end="url(#my-svg-arrowhead)" style="fill: none;"/><text x="252" y="2045" text-anchor="middle" dominant-baseline="middle" alignment-baseline="middle" class="messageText" dy="1em" style="font-size: 16px; font-weight: 400;">Write MIG_VERSION</text><text x="252" y="2065" text-anchor="middle" dominant-baseline="middle" alignment-baseline="middle" class="messageText" dy="1em" style="font-size: 16px; font-weight: 400;">and backward key to MIG_DEC_KEY</text><line x1="415" y1="2098" x2="89" y2="2098" class="messageLine0" data-et="message" data-id="i45" data-from="SRC" data-to="TS" stroke-width="2" stroke="none" marker-end="url(#my-svg-arrowhead)" style="fill: none;"/><text x="1530" y="2113" text-anchor="middle" dominant-baseline="middle" alignment-baseline="middle" class="messageText" dy="1em" style="font-size: 16px; font-weight: 400;">Write MIG_VERSION</text><text x="1530" y="2133" text-anchor="middle" dominant-baseline="middle" alignment-baseline="middle" class="messageText" dy="1em" style="font-size: 16px; font-weight: 400;">and forward key to MIG_DEC_KEY</text><line x1="1371" y1="2163" x2="1688" y2="2163" class="messageLine0" data-et="message" data-id="i46" data-from="DST" data-to="TD" stroke-width="2" stroke="none" marker-end="url(#my-svg-arrowhead)" style="fill: none;"/><text x="1530" y="2219" text-anchor="middle" dominant-baseline="middle" alignment-baseline="middle" class="messageText" dy="1em" style="font-size: 16px; font-weight: 400;">Write approved SERVTD_EXT hash</text><line x1="1371" y1="2252" x2="1688" y2="2252" class="messageLine0" data-et="message" data-id="i48" data-from="DST" data-to="TD" stroke-width="2" stroke="none" marker-end="url(#my-svg-arrowhead)" style="fill: none;"/><text x="578" y="2326" text-anchor="middle" dominant-baseline="middle" alignment-baseline="middle" class="messageText" dy="1em" style="font-size: 16px; font-weight: 400;">ReportStatus(success or error)</text><line x1="417" y1="2357" x2="738" y2="2357" class="messageLine0" data-et="message" data-id="i52" data-from="SRC" data-to="VS" stroke-width="2" stroke="none" marker-end="url(#my-svg-arrowhead)" style="fill: none;"/><text x="1192" y="2372" text-anchor="middle" dominant-baseline="middle" alignment-baseline="middle" class="messageText" dy="1em" style="font-size: 16px; font-weight: 400;">ReportStatus(success or error)</text><line x1="1369" y1="2403" x2="1014" y2="2403" class="messageLine0" data-et="message" data-id="i53" data-from="DST" data-to="VD" stroke-width="2" stroke="none" marker-end="url(#my-svg-arrowhead)" style="fill: none;"/></svg>
